# xmcd
# Copyright (C) 1995-1998 Ti Kan
#
# Track frame offsets:
#       150
#       20717
#       31052
#       52022
#       63380
#       77212
#       91202
#       101880
#       127042
#       140365
#       155545
#       167735
#       183650
#       204690
#
# Disc length: 2931 seconds
#
# Revision: 0
# Processed by: cddbd v1.5.2PL0 Copyright (c) Steve Scherf et al.
# Submitted via: CD-Import v1.0
#
DISCID=c70b710e
DTITLE=Blondie - Best Of
DYEAR=1983
DGENRE=
TTITLE0=Heart Of Glass
TTITLE1=Denis
TTITLE2=Tide Is High
TTITLE3=In The Flesh
TTITLE4=Sunday Girl
TTITLE5=Dreaming
TTITLE6=Hanging On The Telephone
TTITLE7=Rapture
TTITLE8=Picture This
TTITLE9=Union City Blue
TTITLE10=Presence Dear
TTITLE11=Call Me
TTITLE12=Atomic
TTITLE13=Rip Her To Shreds
EXTD=
EXTT0=
EXTT1=
EXTT2=
EXTT3=
EXTT4=
EXTT5=
EXTT6=
EXTT7=
EXTT8=
EXTT9=
EXTT10=
EXTT11=
EXTT12=
EXTT13=
PLAYORDER=
